<svg xmlns="http://www.w3.org/2000/svg" viewBox="0 0 512 512" role="img" aria-labelledby="title">
  <title id="title">Phone icon</title>
  
  <defs>
    <linearGradient id="strokeGradient" x1="0%" y1="0%" x2="100%" y2="100%">
      <stop offset="0%" stop-color="#5E8CFF"/>
      <stop offset="52%" stop-color="#8B6CFF"/>
      <stop offset="100%" stop-color="#C07CFF"/>
    </linearGradient>
    <linearGradient id="bgGradient" x1="0%" y1="0%" x2="100%" y2="100%">
      <stop offset="0%" stop-color="#101A3A"/>
      <stop offset="100%" stop-color="#070B1E"/>
    </linearGradient>
    <filter id="glow" x="-40%" y="-40%" width="180%" height="180%">
      <feGaussianBlur stdDeviation="6" result="blur"/>
      <feMerge>
        <feMergeNode in="blur"/>
        <feMergeNode in="SourceGraphic"/>
      </feMerge>
    </filter>
  </defs>

  <circle cx="256" cy="256" r="214" fill="url(#bgGradient)" stroke="url(#strokeGradient)" stroke-width="5"/>
  <g fill="none" stroke="url(#strokeGradient)" stroke-width="18" stroke-linecap="round" stroke-linejoin="round" filter="url(#glow)">
    <path d="M376 315v36a24 24 0 0 1-26 24 237 237 0 0 1-104-37 234 234 0 0 1-72-72 237 237 0 0 1-37-104 24 24 0 0 1 24-26h36a24 24 0 0 1 24 21 154 154 0 0 0 9 34 24 24 0 0 1-6 25l-15 15a192 192 0 0 0 72 72l15-15a24 24 0 0 1 25-6 154 154 0 0 0 34 9 24 24 0 0 1 21 24z"/>
  </g>
</svg>
